# xmcd
#
# Track frame offsets: 
#        150
#        8705
#        23673
#        49053
#        64299
#        77407
#        90775
#        112059
#        126150
#        149459
#
# Disc length: 2213 seconds
#
# Revision: 0
# Processed by: cddbd v1.5.2PL0 Copyright (c) Steve Scherf et al.
# Submitted via: ExactAudioCopy v0.95b3
#
DISCID=7808a30a
DTITLE=Jeni and Billy - Jewell Ridge Coal
DYEAR=2008
DGENRE=Bluegrass
TTITLE0=Miners Reward
TTITLE1=Tazwell Beauty Queen
TTITLE2=Local 6167
TTITLE3=Oxycodone
TTITLE4=Jewell Ridge Coal
TTITLE5=Sweetness Keen As Pain
TTITLE6=Middle Creek
TTITLE7=Chicken Ridge
TTITLE8=Land of the Pharaohs
TTITLE9=Ain't Got Time for Trouble Blues
EXTD=
EXTT0=
EXTT1=
EXTT2=
EXTT3=
EXTT4=
EXTT5=
EXTT6=
EXTT7=
EXTT8=
EXTT9=
PLAYORDER=
